<svg xmlns="http://www.w3.org/2000/svg" width="198.155mm" height="198.155mm" viewBox="0 0 702.1258 702.12579"><circle cx="354.033" cy="348.09" r="351.063" fill="#fff"/><path d="M383.244 9.312c-1.194.02-3.224.638-4.514 1.382-1.29.733-3.25 1.346-4.358 1.37-1.1.02-2.24.646-2.527 1.39-1.417 3.7-5.563 4.365-31.865 5.138-22.918.68-26.032.967-31.096 2.84-3.09 1.15-8.362 2.857-11.714 3.793-4.66 1.3-5.41 1.718-3.19 1.782 7.938.234 11.467 4.217 6.238 7.044-2.527 1.37-2.48 1.39 2.576 1.206 4.66-.177 5.187 0 5.456 1.853.184 1.328-.418 2.42-1.718 3.117-1.1.588-1.786 1.64-1.517 2.34.652 1.7-1.605 3.453-3.508 2.727-.836-.326-1.523-1.382-1.523-2.363 0-2.196-3.898-2.455-5.624-.37-.637.77-1.757 1.405-2.48 1.405-1.95 0-3.763 4.444-2.374 5.833.836.836 1.56.595 3.058-1.014 1.54-1.655 2.8-2.044 5.864-1.82 4.57.332 5.574 2.904 1.322 3.39-3.7.425-3.182 2.15.574 1.896 3.756-.248 7.77 2.67 10.77 7.837 2.687 4.617 2.553 5.996-.877 9.13l-2.9 2.645 2.17 1.523c1.194.83 2.728 1.513 3.4 1.513.682 0 2.907.85 4.937 1.89 4.11 2.09 5.47 5.172 3.738 8.414-.885 1.666-.797 2.374.496 3.806 1.825 2.012 1.262 4.457-1.183 5.173-4.475 1.323-13.422 6.428-14.715 8.406-.805 1.226-3.324 3.32-5.6 4.652-2.426 1.417-4.357 3.33-4.687 4.642-.4 1.6-1.757 2.622-4.91 3.7-6.23 2.125-11.817 5.604-15.237 9.495-2.18 2.487-4.595 3.887-9.19 5.33-5.55 1.742-7.017 1.842-13.342.956-3.91-.555-12.678-.874-19.488-.708-10.392.248-12.873.592-15.466 2.17-1.7 1.026-4.51 2.174-6.25 2.543-1.737.368-6.244 2.136-10.02 3.933-8.99 4.266-10.348 3.99-9.958-2.045.443-6.714 2.225-10.162 8.823-17.032 11.037-11.504 25.487-20.685 30.735-19.534 2.313.507 2.593.344 2.168-1.275-.553-2.125 3.62-4.818 7.477-4.818 1.23 0 3.01-.857 3.96-1.906.947-1.046 5.862-4.064 10.914-6.708 10.32-5.4 11.526-6.45 12.702-11.03.826-3.2 4.606-6.024 10.7-7.987 1.677-.54.143-1.016-6.21-1.933-4.642-.674-8.54-1.255-8.67-1.297-.7-.238-.093-4.748.7-5.234 1.453-.896 1.11-3.28-.467-3.28-.872 0-1.407.885-1.407 2.31 0 3.06-4.883 8.486-11.253 12.507-2.835 1.797-7.335 5.103-9.993 7.35-2.664 2.246-7.526 5.286-10.807 6.76-3.926 1.76-6.874 3.862-8.628 6.165-1.47 1.928-3.99 4.305-5.605 5.294-3.203 1.95-9.007 2.388-10.595.8-.7-.708-2.033-.29-4.535 1.407-1.95 1.317-4.216 2.444-5.053 2.5-2.93.203-6.2-.272-6.98-1.013-1.26-1.204 1.948-6.395 8.15-13.18 3.166-3.473 6.536-7.442 7.486-8.823.95-1.382 2.845-2.934 4.21-3.455 2.08-.79 2.742-.618 4.127 1.097 1.226 1.51 2.257 1.885 3.997 1.453 1.29-.33 2.345-1.205 2.345-1.956 0-.75 1.265-2.02 2.814-2.82 4.233-2.19 3.4-3.28-2.5-3.28-4.287 0-6.143.537-9.648 2.787-3.56 2.287-4.97 2.683-7.86 2.216-2.585-.418-3.436-.97-3.188-2.084.185-.83.837-1.403 1.453-1.275.613.127 1.595.34 2.183.467.585.13 1.41-.992 1.832-2.498.878-3.118 2.29-4.26 5.3-4.28 3.058-.02 2.594-1.417-1.225-3.67-4.74-2.8-8.632-2.463-16.115 1.38-6.247 3.218-21.154 15.142-25.08 20.056-2.81 3.526-4.535 5.01-8.008 6.892-2.494 1.353-2.87 1.888-1.79 2.57 3.332 2.11 10.8.155 15.946-4.175 1.488-1.256 4.09-2.552 5.775-2.89 5.967-1.18 12.728-4.347 13.206-6.182.26-.992 1.146-1.807 1.968-1.807 1.913 0 2.002 4.526.177 8.707-1.807 4.138-10.432 12.784-15.874 15.91-4.453 2.55-5.208 5.1-1.214 4.095 1.105-.283 2.64-.1 3.408.397 1.116.718-.822 2.993-9.652 11.327-6.08 5.73-11.72 11.742-12.543 13.358-3.38 6.67-10.153 15.888-12.87 17.53-9.07 5.47-10.878 7.234-10.878 10.593 0 2.293-1.27 4.564-5.227 9.362-3.274 3.968-5.793 6.218-6.767 6.03-1.843-.354-3.738-8.156-2.21-9.1.523-.325.877-2.68.778-5.236-.184-5.148-.056-5.262 10.977-9.836l4.578-1.9-3.535-2.398c-2.498-1.694-3.827-2.108-4.535-1.403-1.524 1.534-2.495 1.194-2.495-.875 0-2.51-.875-2.367-5.152.815-4.393 3.284-6.955 9.86-4.393 11.296 1.325.744 1.353 1.15.223 3.26-1.93 3.614-4.164 3.82-9.907.91-5.58-2.827-6.194-4.252-3.2-7.44 1.69-1.808 1.782-2.34.71-4.05-1.8-2.885-3.97-2.43-7.31 1.54-1.63 1.932-3.162 3.048-3.403 2.474-.248-.567-1.002-1.807-1.69-2.743-1.187-1.62-1.438-1.584-5.357.815-2.257 1.38-5.677 3.833-7.597 5.456-1.922 1.63-5.033 3.207-6.92 3.515-3.226.525-3.863 1.27-10.837 12.746-12.77 21-27.396 52.69-31.81 68.907-.915 3.352-2.304 7.99-3.098 10.31-7.05 20.73-10.867 41.69-11.87 65.162-.86 20.328-.425 32.03 1.47 39.366 2.463 9.54 5.088 22.714 5.97 30.006 2.942 24.165 9.46 44.415 18.638 57.82 1.53 2.232 5.216 8.695 8.193 14.367 2.976 5.67 6.455 11.878 7.724 13.784 2.976 4.464 6.105 16.253 5.304 19.97-.336 1.545-1.888 4.606-3.454 6.79l-2.85 3.98 3.463 11.49c4.38 14.526 6.264 18.275 16.175 32.115 21.632 30.2 51.293 59.64 81.453 80.844 49.43 34.76 103.42 54.142 168.75 60.608 9.614.957 57.767-.223 68.712-1.676 76.748-10.19 144.284-43.313 198.007-97.107 36.52-36.577 64.016-80.432 80.903-129.03 4.192-12.07 11.693-40.126 12.083-45.176.106-1.445-1.534-6.13-3.742-10.7-4.075-8.398-4.617-10.517-2.976-11.53.577-.355.018-1.715-1.407-3.41-1.3-1.547-2.366-3.592-2.366-4.545 0-2.79 4.543-7.5 7.24-7.5 2.22 0 2.345-.23 1.82-3.453-.308-1.907-1.856-6.024-3.437-9.142-1.63-3.214-4.464-12.164-6.537-20.587-3.88-15.796-5.113-18.595-6.19-14.066-.354 1.495-1.286 3.454-2.07 4.358-1.984 2.278-3.528.744-5.28-5.237-1.175-4.025-2.274-5.51-6.508-8.805-5.832-4.536-5.754-4.57-9.375 4.074-2.63 6.29-5.408 18.156-7.654 32.705-.797 5.152-2.35 11.906-3.45 14.995-2.28 6.39-2.42 9.022-.894 16.636.594 2.966 1.487 7.725 1.976 10.584.656 3.798 1.793 6.236 4.234 9.092 5.485 6.403 6.19 13.794 1.79 18.66-3.38 3.73-5.528 2.11-7.618-5.755l-.872-3.282-1.73 3.508c-1.78 3.614-3.826 4.904-6.29 3.957-.778-.294-4.11-4.772-7.397-9.946-3.295-5.173-8.582-13.344-11.757-18.152-3.174-4.812-6.07-9.73-6.434-10.93-.365-1.206-1.506-3.71-2.537-5.578-1.69-3.065-2.34-3.444-6.69-3.908-5.287-.568-14.485-4.29-16.452-6.663-.69-.825-1.82-1.502-2.515-1.502-.69 0-2.693-1.265-4.465-2.814-1.757-1.547-3.58-2.815-4.04-2.815-1.18 0-13.57 6.555-15.455 8.167-2.09 1.8-18.337 5.173-22.128 4.606-3.278-.496-3.678.213-1.967 3.462 1.5 2.852 2.612 3.423 6.704 3.437 3.95.02 7.76 1.676 10.304 4.49 1.49 1.65 1.567 2.55.675 8.298-.56 3.543-1.843 7.593-2.856 8.99-1.015 1.395-1.844 3.55-1.844 4.79 0 1.24-1.056 3.805-2.338 5.704-1.294 1.9-2.35 3.776-2.35 4.173 0 .397-1.268 1.93-2.817 3.416-1.543 1.48-2.808 3.216-2.808 3.854 0 .638-2.403 2.775-5.34 4.748-2.94 1.97-6.662 5.482-8.28 7.803-2.995 4.3-17.2 15.927-24.818 20.313-2.32 1.336-6.343 3.838-8.936 5.563-2.587 1.72-6.25 3.46-8.13 3.863l-3.41.73 1.285 3.048c1.985 4.688 5.432 4.168 20.027-3.032 6.778-3.342 13.535-6.97 15.006-8.06 2.197-1.624 3.047-1.794 4.67-.923 1.098.585 1.984 1.878 1.984 2.863 0 .992.475 2.835 1.053 4.1.84 1.842.744 2.742-.468 4.47-.836 1.196-1.524 2.815-1.524 3.6-.016 2.58-10.26 25.418-13.832 30.835-1.913 2.906-8.77 10.772-15.236 17.476-27.928 28.983-30.455 32.066-30.136 36.753.117 1.808-.212 3.792-.726 4.412-.63.762-.592 2.268.12 4.58.79 2.588.78 4.05-.035 5.848-1.676 3.678-1.31 6.105 1.25 8.486 2.198 2.036 2.346 2.75 2.346 11.557v9.39l-4.452 4.287c-2.445 2.353-6.768 5.386-9.61 6.74-2.835 1.353-8.412 4.56-12.394 7.132l-7.236 4.678.567 5.456c.755 7.207-.648 9.284-8.157 12.097-4.918 1.836-6.2 2.817-8.447 6.467-2.64 4.294-7.29 7.56-19.175 13.475-8.823 4.392-14.21 5.42-33.98 6.494-21.455 1.17-26.022.584-27.043-3.483-.638-2.53-6.498-8.277-12.5-12.25-2.516-1.664-5.26-4.84-7.643-8.857-2.042-3.437-4.973-7.66-6.507-9.382-1.538-1.718-2.792-3.65-2.792-4.276 0-.638-1.835-3.41-4.074-6.166-4.95-6.076-7.175-10.226-7.175-13.368 0-3.413 4.026-11.88 6.91-14.528 2.955-2.728 3.048-4.21.613-9.585-1.02-2.246-1.863-5.11-1.878-6.36-.042-4.978-7.274-17.433-15.07-25.95-4.195-4.586-8.45-9.936-9.453-11.89-1.807-3.535-1.807-3.563.092-5.987 1.053-1.336 1.914-3.058 1.914-3.82 0-.765.708-3.376 1.57-5.804 1.884-5.3 1.254-8.128-1.482-6.66-2.905 1.55-5.038.212-4.44-2.786l.507-2.55-7.05-.455c-7.888-.506-8.728-1.038-12.456-7.915-3.685-6.793-4.64-7.066-22.86-6.538-15.39.45-15.868.408-21.002-1.95-3.377-1.54-8.805-2.862-15.15-3.69-5.44-.71-10.823-1.893-11.96-2.64-1.144-.745-4.323-3.98-7.087-7.193-2.75-3.205-8.06-9.1-11.8-13.097-3.737-4.004-6.837-7.824-6.89-8.504-.054-.675-.036-2.496.042-4.04.082-1.72-.886-4.324-2.48-6.67-1.446-2.118-4.454-6.547-6.686-9.842l-4.065-5.99.627-8.91c.496-7.05 1.12-9.75 2.987-12.98 1.927-3.337 2.242-4.804 1.746-8.12-.59-3.95.202-5.563 2.764-5.6 1.088-.02 1.113-.945.117-4.322-.82-2.788 1.44-12.532 4.097-17.67.95-1.836 3.905-5.446 6.566-8.026 2.657-2.576 5.623-6.21 6.59-8.07.993-1.925 3.094-4.027 4.855-4.863 1.71-.815 4.128-2.558 5.37-3.88 1.242-1.32 2.882-2.41 3.64-2.41 2.233 0 12.685-3.932 14.464-5.456.904-.76 1.64-1.972 1.64-2.692 0-5.05 8.774-14.463 15.3-16.42 4.486-1.346 8.717-5.406 9.54-9.155.793-3.62.134-4.55-4.767-6.718-5.066-2.24-5.48-2.924-3.798-6.176.744-1.436 1.354-4.243 1.354-6.237 0-2.126.76-4.642 1.843-6.113 3.14-4.24 5.588-9.744 6.307-14.155 1.325-8.21 6.336-10.24 15.07-6.105 7.115 3.366 12.355 5.166 15.03 5.166 3.02 0 5.067-4.263 5.067-10.57 0-4.252-.513-5.758-3.284-9.655-1.807-2.536-3.28-5.32-3.28-6.19 0-2.505 2.68-4.524 6.015-4.524 1.687 0 4.323-.62 5.854-1.382 2.225-1.113 3.36-1.176 5.634-.32 2.717 1.03 6.845.433 5.605-.807-.325-.326-5.76-1.056-12.075-1.62-9.283-.828-11.54-1.31-11.774-2.533-.183-.97.816-1.948 2.807-2.735 4.585-1.822 5.152-2.48 4.713-5.504l-.407-2.75-6.747.507c-5.563.425-7.03.23-8.344-1.084-2.268-2.27-1.992-3.874 1.218-7.23 1.55-1.622 2.825-3.624 2.842-4.45.07-3.525 5.953-7.05 13.794-8.263 2.948-.453 3.048-.616 3.048-4.96 0-3.948.39-4.83 3.252-7.342 2.658-2.33 3.827-2.764 6.378-2.35 1.86.302 4.592-.106 6.768-1.016 3.253-1.358 3.798-1.372 5.067-.107 1.26 1.265 1.18 1.736-.745 4.337-1.573 2.126-1.878 3.2-1.123 3.95 1.513 1.517 1.23 3.632-.844 6.283-2.416 3.09-2.338 5.623.468 15.002 1.29 4.305 2.346 9.655 2.346 11.884 0 2.23.41 4.053.92 4.053.508 0 3.048-2.112 5.635-4.688 4.23-4.206 5.137-4.688 8.858-4.688 5.216 0 6.66-1.446 7.46-7.476.353-2.632 1.097-5.803 1.664-7.05 1.108-2.435 5.923-5.16 9.112-5.16 1.088 0 1.97-.602 1.97-1.346 0-2.073-1.41-2.49-3.38-1-2.445 1.854-8.734 1.773-10.842-.14-3.154-2.853-1.868-17.983 1.888-22.235 1.666-1.88 10.14-7.637 14.545-9.876 4.057-2.055 11.8-11.782 11.204-14.06-.33-1.265.383-2.693 2.187-4.394 3.812-3.586 15.06-10.7 16.922-10.7.86 0 3.338-.85 5.507-1.903 2.16-1.05 5.988-2.144 8.496-2.434 3.883-.443 5.095-.16 8.13 1.92 4.572 3.125 10.543 6.172 12.098 6.176 2.02 0 12.983 5.502 15.98 8.02 3.46 2.906 4.174 2.41 2.197-1.547-.822-1.66-1.5-3.856-1.5-4.88 0-1.7.462-1.814 5.16-1.328 4.656.482 5.014.39 3.703-.922-1.984-1.984-1.32-4.436 1.3-4.81 1.56-.22 2.314.24 2.68 1.64.61 2.33 1.51 2.462 3.164.467.673-.815 3.323-2.537 5.88-3.837 5.547-2.807 4.664-4.02-2.94-4.04-5.084-.018-9.198-1.534-11.42-4.216-1.4-1.683-3.65-13.015-3.72-18.78-.043-3.146.62-4.5 4.085-8.383 3.586-4.018 4.334-4.465 5.634-3.388 1.256 1.042 1.46 3.154 1.26 12.923-.23 11.14-.143 11.752 1.877 13.392 3.395 2.75 17.398 5.014 19.29 3.118.343-.347.042-1.296-.673-2.11-2.03-2.315-7.293-15.007-6.96-16.772.167-.868 1.276-1.722 2.456-1.888 1.198-.17 2.51-1.255 2.966-2.452.446-1.177 1.523-2.41 2.388-2.746 1.05-.404 1.36-1.152.928-2.24-.354-.896-1.265-4.585-2.026-8.195-.932-4.42-2.162-7.37-3.756-9.046-1.995-2.09-2.197-2.8-1.31-4.464 1.32-2.463-.664-3.58-3.587-2.02-1.05.56-4.376 1.276-7.4 1.595-6.313.66-11.468-1.26-11.468-4.276 0-1.407.896-1.857 4.454-2.246 2.444-.263 6.56-.982 9.14-1.595 2.58-.613 6.566-1.08 8.866-1.042 2.61.047 4.804-.495 5.846-1.437 1.63-1.48 5.645-1.403 12.993.248 1.92.426 2.608.072 3.473-1.835.932-2.044.836-2.444-.71-2.933-4.25-1.347-2.844-7.636 1.93-8.59 5.15-1.027 3.032-4.305-3.782-5.835-3.153-.71-4.88-.61-7.342.418-3.904 1.637-8.564 1.7-10.56.15-2.656-2.067-6.093-10.986-4.23-10.986.213 0 1.007-.238 1.755-.525.778-.3 2.844.886 4.888 2.813 3.728 3.515 6.116 4.153 7.83 2.09 1.51-1.82-.22-6.93-3.117-9.212-1.328-1.04-3.025-3.082-3.773-4.528-1.08-2.09-3.047-3.238-9.59-5.598-8.73-3.147-32.727-13.72-34.736-15.307-.655-.514-.942-1.72-.637-2.68.425-1.36.07-1.735-1.623-1.71zm21.483 2.657c-.978-.036-1.63.02-1.63.2 0 .398.744.923 1.644 1.156 2.198.574 10.036.76 9.497.224-.613-.617-6.57-1.49-9.51-1.584zM289.403 27.1c-.822 0-2.664.442-4.1.99-2.09.79-2.33 1.164-1.232 1.858 2.077 1.31 3.26 1.088 5.124-.978 1.474-1.63 1.503-1.878.213-1.878zm-.05 9.828c-.602.022-2.02.22-3.65.518-2.45.45-4.676 1.605-5.856 3.047-1.05 1.275-2.852 2.61-4.01 2.966-1.783.537-1.95.934-1.1 2.532 1.56 2.913 5.305 1.47 10.47-4.04 2.446-2.604 4.455-4.854 4.455-4.985 0-.035-.113-.046-.312-.035zm204.93 4.49c-.523 0-.885.078-1.062.248-.318.336 1.1 2.073 3.155 3.862 4.18 3.628 34.42 23.882 34.915 23.386.177-.177-.195-1.442-.815-2.81-1.584-3.473-.234-4.52 4.224-3.295 1.965.544 3.762.803 3.992.573.49-.496-9.78-6.93-22.04-13.802-7.273-4.073-18.708-8.138-22.37-8.162zm-234.778 3.53c-3.058-.044-5.47.814-5.47 1.94 0 1.25 2.968.95 5.626-.566l2.34-1.347zm-1.718 8.524c-.426 0-.85.064-1.17.195-.645.26-.117.475 1.17.475 1.293 0 1.817-.213 1.17-.472-.32-.13-.745-.194-1.17-.194zm31.12 13.953c-1.367.01-1.392.142-.177.922 1.832 1.19 3.072 1.19 2.34 0-.32-.514-1.29-.93-2.163-.922zM167.443 86.62c.344.046.648.212.84.52.304.496.294 1.32-.025 1.836-.865 1.4-3.28 1.134-3.28-.37 0-1.193 1.423-2.125 2.46-1.983zm214.93 5.534c.566-.02 1.26.007 2.125.07 2.208.168 4.146.71 4.31 1.195.637 1.913-1.64 5.863-3.385 5.863-.98 0-2.994.63-4.47 1.4-3.35 1.747-5.118 1.772-7.396.106-1.513-1.106-1.595-1.524-.532-2.81.69-.83 2.19-1.51 3.33-1.51 1.294 0 2.474-.86 3.12-2.268.672-1.477 1.214-1.995 2.905-2.055zm42.767 7.13c.77 0 1.403.637 1.403 1.406 0 1.46-1.11 1.857-2.186.78-1.084-1.08-.687-2.19.78-2.19zm-74.6 3.06c1.57-.035 2.852.015 3.465.167 2.842.71 2.916 3.587.142 5.43-1.772 1.176-1.94 1.725-1.08 3.63.548 1.235.814 2.772.6 3.417-.495 1.425-4.187 1.55-5.55.188-.69-.69-1.454-.27-2.552 1.403-2.41 3.67-4.125 2.93-6.69-2.87-2.027-4.585-2.176-5.598-1.148-7.738 1.042-2.173 1.96-2.562 7.618-3.246 1.772-.213 3.625-.344 5.194-.383zm245.94 8.568c-.638.638 1.56 3.537 8.62 11.4 3.438 3.837 6.715 6.98 7.275 6.98.603 0 .46-.674-.344-1.645-5.774-6.955-15.2-17.09-15.554-16.73zm-468.077 20.34c-.765-.1-.86.966.152 2.593.858 1.374 1.407 1.6 1.907.793.39-.623.095-1.743-.65-2.48-.58-.585-1.062-.868-1.41-.91zM251.7 142.826c1.6.053 3.128.77 3.518 2.25.297 1.144 2.09 2.037 5.73 2.85 5.846 1.303 7.592 3.223 6.59 7.21-.992 3.968-5.443 6.012-13.082 6.023-6.15 0-6.814-.202-9.344-2.845-2.338-2.445-2.562-3.104-1.58-4.677.63-1.003 1.144-2.633 1.144-3.615 0-.985.63-2.03 1.403-2.328.78-.297 1.406-1.17 1.406-1.94 0-1.95 2.17-2.992 4.224-2.928zm367.865 3.777c-.443-.053-.652.34-.968 1.14-1.187 3.013-.843 5.8.84 6.755 1.254.707 1.722.565 1.984-.64.19-.85.98-2.02 1.76-2.586 1.203-.886 1.026-1.346-1.25-3.136-1.25-.992-1.926-1.488-2.373-1.537zm7.05 6.477c-.056-.013-.098-.013-.123.012-.188.188 1.19 3.14 3.068 6.555 2.268 4.117 4.14 6.392 5.563 6.75 1.17.294 3.536 1.984 5.244 3.745 3.306 3.402 3.685 3.65 3.685 2.434 0-2.03-8.766-14.23-10.226-14.23-.886 0-2.824-1.257-4.298-2.8-1.29-1.345-2.494-2.362-2.905-2.465zM386.51 169.148c-1.772.07-3.57.496-3.81 1.215-.3.92.63 1.16 3.675.94 2.246-.16 3.98-.71 3.848-1.23-.176-.71-1.934-.993-3.71-.922zm-34.183 5.137c-1.587 0-4.535 2.877-4.535 4.422 0 1.4 1.194.97 3.986-1.424 1.89-1.623 2.14-2.994.546-2.994zm-81.46 2.084c.39 0 .8.166 1.183.553.886.886.79 1.475-.432 2.693-1.463 1.467-1.61 1.464-2.197-.063-.64-1.666.293-3.18 1.452-3.182zm71.387 9.17c-1.18 0-5.446 5.194-6.19 7.54-1.134 3.58 3.252 6.19 5.917 3.522 1.31-1.304 1.544-11.062.272-11.062zm-60.92 3.75c1.417 0 1.814.424 1.406 1.487-.31.815-.566 1.655-.566 1.87 0 .213-.638.39-1.407.39-.78 0-1.407-.832-1.407-1.877 0-1.276.627-1.87 1.977-1.87zm94.535 6.56c-.55 0-.737.426-.418.94.318.51.764.932.99.932.228 0 .416-.425.416-.936 0-.52-.447-.942-.993-.942zm-30.72 8.763c-1.935-.14-4.7 1.146-8.575 3.97-3.98 2.888-4.82 4.146-4.18 6.208.785 2.516-2.255 7.334-5.493 8.695-2.117.886-2.978 1.878-2.988 3.444-.015 1.828-.468 2.17-2.676 2.013-2.218-.156-2.47.035-1.523 1.17 1.39 1.68 2.565 1.7 5.61.112 3.872-2.02 6.59-2.437 8.935-1.367 4.04 1.842 6.385-.808 8.206-9.284.88-4.074 2.385-8.963 3.35-10.852 1.657-3.25 1.664-3.472.12-3.96-.25-.083-.504-.132-.78-.154zm-8.104 7.177c1.984 0 1.69 3.178-.482 5.137-1.63 1.49-1.912 1.51-2.408.22-.73-1.903 1.134-5.357 2.895-5.357zm15.073 1.296c-.333.015-.567.39-.567.993 0 .804.417 1.46.935 1.46.514 0 .935-.39.935-.88 0-.485-.425-1.144-.935-1.463-.13-.08-.255-.117-.365-.113zM255.04 222.1c-.55 0-.992.426-.992.937 0 .517.185.94.41.94.225 0 .675-.427.993-.94.32-.514.133-.936-.413-.936zm416.58 7.736c-.213.22.045 2.68.577 5.47.53 2.793 1.382 7.903 1.87 11.35.497 3.455 1.96 9.433 3.26 13.288 1.29 3.862 2.35 8.946 2.35 11.303 0 3.667-.273 4.287-1.878 4.287-1.03 0-1.872.447-1.872.992 0 1.903 2.693 6.077 5.91 9.17 1.79 1.726 4.004 4.784 4.915 6.81.91 2.02 1.793 3.544 1.963 3.374.166-.167-.348-4.075-1.145-8.68-2.32-13.455-6.554-30.24-11.21-44.49-2.38-7.3-4.514-13.086-4.73-12.87zM140.35 265.75c1.117.05 2.34 1.206 1.737 2.184-.822 1.325-2.12 1.336-2.93.025-.347-.568-.262-1.39.188-1.844.276-.273.637-.38 1.006-.365zm314.533 7.272c-.475-.05-.543.425-.805 1.098-.34.893.092 3.877.957 6.633 1.687 5.333 5.726 9.603 13.383 14.12 4.443 2.63 5.492 4.412 3.543 6.024-.867.726-1.345 2.923-1.345 6.2 0 5.078 0 5.085 3.983 6.854 4.875 2.162 7.288 2.31 9.662.575 1.78-1.304 1.76-1.453-.957-6.804-2.494-4.924-4.004-8.283-8.635-19.186-.793-1.87-2.47-3.872-3.72-4.443-1.254-.566-4.635-2.833-7.52-5.023-5.824-4.436-7.752-5.96-8.545-6.038zm-46.914 3.543c-.192-.014-.42 0-.688.053-.92.177-1.86.886-2.09 1.584-.27.805.184 1.145 1.25.936.92-.178 1.864-.886 2.09-1.58.206-.603 0-.947-.566-.993zm-22.75 4.01c-.85-.04-1.7.122-2.217.547-.698.58-1.552 2.197-1.903 3.593-.354 1.4-1.204 3.175-1.892 3.947-1.672 1.878-5.16 11.19-5.16 13.783 0 1.134.735 2.49 1.638 3.012 2.71 1.584 8.975 1.14 12.926-.907 2.045-1.056 5.868-2.494 8.504-3.19 4.298-1.143 5.432-1.087 11.247.568 8.404 2.392 16.45 2.01 19.38-.92 2.953-2.953 1.667-4.366-9.24-10.17-10.112-5.386-12.53-5.86-16.802-3.285-5.33 3.224-5.902 3.175-9.86-.787-2.048-2.055-3.727-4.12-3.727-4.606 0-.886-1.46-1.516-2.888-1.584zm-77.916 4.473c-.15 0-.283.053-.39.16-.44.417 0 2.108.97 3.748.976 1.648 2.744 4.96 3.934 7.37s2.977 4.642 3.976 4.954c.992.32 4.48 3.093 7.742 6.165 3.26 3.083 6.26 5.6 6.66 5.6.402 0 .728-1.178.728-2.61 0-3.67-2.243-6.448-7.328-9.063-3.887-2.002-11.707-10-14.828-15.165-.436-.727-1.017-1.16-1.464-1.156zm-18.56 4.606c-1.47.057-3.355.66-5.634 1.82-4.393 2.24-7.072 2.35-11.572.47-1.85-.773-3.586-1.408-3.855-1.408-.273 0-1.24 1.584-2.14 3.515-1.3 2.776-2.934 4.154-7.742 6.55-6.306 3.142-11.246 7.618-11.246 10.194 0 2.97-4.05 7.086-9.226 9.372-4.77 2.108-5.68 2.232-9.745 1.25-2.47-.59-5.116-.832-5.88-.538-2.117.815-1.674 3.21.707 3.848 1.162.312 3.696 1.038 5.634 1.62 2.85.857 4.94.736 10.95-.64 5.845-1.335 9.488-1.568 17.102-1.097 5.315.318 14.315.835 19.985 1.133 14.486.77 20.14 3.543 16.998 8.334-1.134 1.736-1.14 2.47-.022 5.137 2.002 4.748 1.66 6.485-1.548 7.806l-2.863 1.17 4.06 3.394c2.375 1.984 6.343 4.05 9.568 4.985 4.99 1.452 9.9 4.907 10.93 7.688.497 1.333 12.962 7.735 15.18 7.796.914.024 1.818-.482 2-1.127.183-.645.792-2.87 1.345-4.936 1.782-6.59 10.48-9.778 16.69-6.118 4.914 2.905 16.394 6.4 25.27 7.7 6.955 1.02 7.916.963 11.25-.692 2.89-1.435 5.343-1.77 11.764-1.608l8.114.198 1.477-3.692c2.58-6.438 4.677-19.098 3.668-22.13-1.055-3.17-3.49-3.952-5.8-1.865-2.87 2.597-6.952 2.81-11.314.584l-3.99-2.037-2.07 1.95c-2.23 2.09-5.27 2.486-7.985 1.034-1.275-.684-2.104-.454-3.365.94-2.43 2.684-3.42 2.316-6.385-2.383-2.828-4.477-4.37-5.338-4.37-2.454 0 .967-.63 2.285-1.402 2.927-1.772 1.474-6.626-.302-8.037-2.94-1.47-2.737-3.684-2.163-3.684.955 0 4.217-1.99 5.223-5.835 2.956-3.94-2.328-9.166-8.646-9.166-11.084 0-1.477-3.933-10.017-5.244-11.363-.202-.213-1.226.39-2.268 1.336-1.463 1.318-2.16 1.463-3.012.62-1.778-1.783-2.6-1.287-2.6 1.566 0 2.635-5.492 9.516-7.594 9.516-.52 0-1.56 1.474-2.313 3.28-1.63 3.9-2.977 4.05-8.27.95-10.31-6.04-10.5-10.296-.46-10.37 8.198-.06 8.978-.213 9.62-1.89.973-2.536-1.907-6.49-8.753-12.025-3.65-2.94-7.317-6.405-8.16-7.688-1.616-2.466-4.837-4.62-5.67-3.79-.27.272-.797 4.587-1.176 9.594-.733 9.687-1.984 12.022-6.13 11.427-1.6-.227-1.92-1.09-2.16-5.83-.235-4.438.098-6.082 1.636-8.162 1.063-1.434 1.924-3.805 1.924-5.268 0-3.225 1.516-4.915 4.408-4.915 1.24 0 2.16-.567 2.16-1.33 0-2.91-1.296-4.336-3.748-4.24zm-29.374 17.76c1.86 0 2.254.41 2.013 2.107-.337 2.354-4.046 3.492-4.755 1.46-.744-2.135.36-3.567 2.746-3.567zm5.517 0c.23 0 .415.424.415.935 0 .516-.447.938-.992.938-.546 0-.73-.426-.41-.943.318-.514.764-.935.99-.935zm91.878 10.04c-.585-.034-1.332.153-2.434.568-3.507 1.33-3.49 2.108.114 4.3 1.595.965 3.923 3.283 5.19 5.14 2.39 3.518 4.11 4.368 4.11 2.037 0-.746-.424-1.614-.94-1.933-.515-.318-.94-2.24-.94-4.273 0-2.515-.415-3.695-1.293-3.695-.708 0-1.782-.593-2.38-1.312-.433-.525-.85-.798-1.428-.837zM164.052 319.6c.517 0 .94.417.94.934 0 .514-.426.935-.94.935s-.935-.426-.935-.936c0-.517.425-.94.935-.94zm527.682 9.77c-.248.022-.467.628-.72 1.868-.736 3.632-2.043 3.898-5.126 1.04-3.557-3.297-4.337-2.988-4.337 1.735 0 5.935 4.196 17.93 7.754 22.174l3.03 3.614.262-14.208c.14-7.806-.036-14.846-.39-15.643-.17-.39-.326-.586-.475-.575zm-287.92 10.975c1.168.08 1.32 1.045.807 3.096-.814 3.26-5.718 5.827-8.77 4.594-.637-.26-1.168-1.23-1.168-2.155 0-2.09 1.357-3.2 5.836-4.784 1.523-.54 2.593-.808 3.295-.755zm-34.917 2.693c.514 0 1.077.418 1.25.93.17.52-.39.94-1.25.94s-1.417-.425-1.25-.94c.177-.512.737-.934 1.254-.934zm-12.543.177c3.706.092 8.327 1.364 8.327 3.047 0 2.285-2.444 2.707-8.68 1.5-4.18-.816-4.862-1.355-4.12-3.282.367-.957 2.26-1.326 4.48-1.27zm-199.8 2.16c.688 0 1.425.533 1.64 1.17.228.702-.435 1.177-1.643 1.177-1.204 0-1.877-.475-1.64-1.17.213-.648.957-1.176 1.64-1.176zm12.802 1.408c1.807 0 1.552 2.257-.46 4.075-2.002 1.814-2.636 1.913-3.473.552-.744-1.204 2.162-4.627 3.933-4.627zm-9.524 1.878c.772 0 1.407.63 1.407 1.404 0 .772-.64 1.407-1.412 1.407-.772 0-1.406-.637-1.406-1.406 0-.773.638-1.407 1.406-1.407zm506.14 3.792c.697-.05 1.487.425 1.888 1.453.907 2.374-.922 4.21-2.562 2.565-.344-.343-.627-1.396-.627-2.338 0-1.063.603-1.63 1.298-1.68zm-182.693 11.6c-.17 0-.327.026-.48.072-2.824.9-2.8 2.87.082 5.73 1.502 1.487 4.262 4.28 6.137 6.193 2.784 2.85 3.726 3.313 5.16 2.544 2.66-1.416 6.436 2.722 6.436 7.06 0 3.922 1.155 4.195 4.135.98 1.195-1.29 2.825-2.345 3.615-2.345 1.17 0 6.314-7.115 6.314-8.734 0-.236-2.428-.378-5.394-.318-8.744.184-15.944-2.374-20.707-7.37-2.516-2.64-4.13-3.81-5.298-3.806zM105 387.1c.78 0 3.72 4.784 3.72 6.045 0 1.46-2.8.213-4.146-1.853-1.513-2.303-1.318-4.195.425-4.195zm305.917 2.516c-.265 0-.482.07-.637.23-1.212 1.212.857 5.826 6.023 13.415 2.02 2.962 3.664 6.2 3.664 7.203 0 1.003 1.276 2.728 2.835 3.84 3.302 2.354 5.998 7.236 7.554 13.69.765 3.17 2.324 5.874 5.077 8.793 2.18 2.32 5.145 6.364 6.584 8.982 2.16 3.934 2.99 4.695 4.74 4.36 1.61-.31 2.623.353 4.193 2.745 1.637 2.505 10.583 10.162 11.87 10.162.16 0-.404-1.58-1.25-3.515-.852-1.93-1.985-5.35-2.535-7.59-.7-2.87-1.637-4.323-3.16-4.9-1.34-.507-2.162-1.595-2.162-2.85 0-1.12-1.693-3.86-3.756-6.1-2.062-2.233-3.748-4.48-3.748-4.982 0-.496-1.85-2.187-4.112-3.742-3.543-2.434-4.482-3.827-6.74-10.02-2.075-5.695-3.33-7.69-6-9.603-3.438-2.445-7.63-7.583-10.536-12.905-1.963-3.6-6.076-7.207-7.915-7.21zm-298.452 8.73c.517 0 .94.426.94.94 0 .51-.426.932-.94.932s-.935-.425-.935-.936c0-.52.425-.942.935-.942zm-3.75 2.814c1.252 0 1.88.624 1.88 1.878 0 1.807-1.836 2.537-3.126 1.247-1.294-1.29-.56-3.125 1.246-3.125zm413.682 49.855c.41-.022.85.053 1.31.23 1.188.453 1.248.83.312 1.956-1.478 1.78-3.742 1.806-3.742.045 0-1.33.9-2.19 2.126-2.232zM252.15 533.345c.52 0 .942.425.942.94 0 .51-.426.93-.94.93-.513 0-.935-.425-.935-.935 0-.52.418-.942.932-.942zm158.526 9.666c-2.278.132-6.647 3.735-6.647 5.883 0 2.806.12 2.8 4.705-.09 3.642-2.302 4.698-4.435 2.778-5.622-.224-.14-.507-.19-.833-.17zm88.15 37.205c3.615 0 6.272 11.498 3.232 14.018-.737.613-2.186 2.735-3.217 4.712-3.046 5.847-11.905 19.896-16.37 25.95-2.92 3.97-5.43 6.238-8.517 7.69-5.6 2.633-11.87 3.52-13.44 1.903-.645-.666-1.17-3.175-1.17-5.58 0-3.445.592-5.12 2.81-7.91 2.162-2.72 2.814-4.492 2.814-7.66 0-7.607 1.7-9.92 10.445-14.162 6.612-3.207 8.908-4.982 14.695-11.374 4.18-4.628 7.582-7.583 8.716-7.583zm23.273 24.378c.545 0 .99.426.99.94 0 .517-.183.938-.41.938-.23 0-.673-.424-.992-.938-.32-.513-.135-.935.41-.935z" fill="#08113c"/></svg>