<svg xmlns="http://www.w3.org/2000/svg" width="198.155mm" height="198.155mm" viewBox="0 0 702.1258 702.12579"><g transform="matrix(3.5433 0 0 3.5433 -1351.083 839.116)"><circle cx="480.383" cy="-137.739" r="99.078" fill="#fff"/><path d="M488.627-233.35c-.337.006-.91.18-1.274.39-.364.207-.917.38-1.23.387-.31.005-.632.182-.713.392-.4 1.044-1.57 1.232-8.993 1.45-6.468.192-7.347.273-8.776.802-.872.324-2.36.806-3.306 1.07-1.315.367-1.527.485-.9.503 2.24.066 3.236 1.19 1.76 1.988-.713.386-.7.392.727.34 1.315-.05 1.464 0 1.54.523.052.375-.118.683-.485.88-.31.166-.504.463-.428.66.184.48-.453.975-.99.77-.236-.092-.43-.39-.43-.667 0-.62-1.1-.693-1.587-.105-.18.218-.496.397-.7.397-.55 0-1.062 1.254-.67 1.646.236.236.44.168.863-.286.435-.467.79-.577 1.655-.514 1.29.094 1.573.82.373.957-1.044.12-.898.607.162.535 1.06-.07 2.193.754 3.04 2.212.758 1.303.72 1.692-.248 2.577l-.818.746.612.43c.337.234.77.427.96.427.192 0 .82.24 1.393.533 1.16.59 1.544 1.46 1.055 2.375-.25.47-.225.67.14 1.074.515.568.356 1.258-.334 1.46-1.263.373-3.788 1.814-4.153 2.372-.227.346-.938.937-1.58 1.313-.685.4-1.23.94-1.323 1.31-.113.452-.496.74-1.386 1.044-1.758.6-3.335 1.582-4.3 2.68-.615.702-1.297 1.097-2.594 1.504-1.566.492-1.98.52-3.765.27-1.104-.157-3.578-.247-5.5-.2-2.933.07-3.633.167-4.365.612-.48.29-1.273.614-1.764.718-.49.104-1.762.603-2.828 1.11-2.537 1.204-2.92 1.126-2.81-.577.125-1.895.628-2.868 2.49-4.807 3.115-3.247 7.193-5.838 8.674-5.513.653.143.732.097.612-.36-.156-.6 1.022-1.36 2.11-1.36.347 0 .85-.242 1.118-.538.267-.295 1.654-1.147 3.08-1.893 2.913-1.524 3.253-1.82 3.585-3.113.233-.903 1.3-1.7 3.02-2.254.473-.153.04-.287-1.753-.546-1.31-.19-2.41-.354-2.447-.366-.197-.067-.026-1.34.198-1.477.41-.253.313-.926-.132-.926-.246 0-.397.25-.397.652 0 .864-1.378 2.395-3.176 3.53-.8.507-2.07 1.44-2.82 2.074-.752.634-2.124 1.492-3.05 1.908-1.108.497-1.94 1.09-2.435 1.74-.415.544-1.126 1.215-1.582 1.494-.904.55-2.542.674-2.99.226-.198-.2-.574-.082-1.28.397-.55.372-1.19.69-1.426.706-.827.057-1.75-.077-1.97-.286-.355-.34.55-1.805 2.3-3.72.894-.98 1.845-2.1 2.113-2.49.268-.39.803-.828 1.188-.975.587-.223.774-.174 1.165.31.346.426.637.532 1.128.41.364-.093.662-.34.662-.552 0-.212.357-.57.794-.796 1.195-.618.96-.926-.705-.926-1.21 0-1.734.152-2.723.787-1.005.645-1.403.757-2.218.625-.73-.118-.97-.274-.9-.588.052-.234.236-.396.41-.36.173.036.45.096.616.132.165.037.398-.28.517-.705.248-.88.646-1.202 1.496-1.208.863-.006.732-.4-.346-1.036-1.338-.79-2.436-.695-4.548.39-1.763.908-5.97 4.273-7.078 5.66-.793.995-1.28 1.414-2.26 1.945-.704.382-.81.533-.505.725.94.596 3.048.044 4.5-1.178.42-.354 1.154-.72 1.63-.815 1.684-.333 3.592-1.227 3.727-1.745.073-.28.323-.51.555-.51.54 0 .565 1.277.05 2.457-.51 1.168-2.944 3.608-4.48 4.49-1.257.72-1.47 1.44-.343 1.156.312-.08.745-.028.962.112.315.203-.232.845-2.724 3.197-1.716 1.617-3.308 3.314-3.54 3.77-.954 1.882-2.865 4.484-3.632 4.947-2.56 1.544-3.07 2.042-3.07 2.99 0 .647-.358 1.288-1.475 2.642-.924 1.12-1.635 1.755-1.91 1.702-.52-.1-1.055-2.302-.624-2.568.148-.092.248-.757.22-1.478-.052-1.453-.016-1.485 3.098-2.776l1.292-.536-.998-.677c-.705-.478-1.08-.595-1.28-.396-.43.433-.704.337-.704-.247 0-.708-.247-.668-1.454.23-1.24.927-1.963 2.783-1.24 3.188.374.21.382.325.063.92-.545 1.02-1.175 1.078-2.796.257-1.575-.798-1.748-1.2-.903-2.1.477-.51.503-.66.2-1.143-.508-.814-1.12-.686-2.063.435-.46.545-.892.86-.96.698-.07-.16-.283-.51-.477-.774-.335-.457-.406-.447-1.512.23-.637.39-1.602 1.082-2.144 1.54-.542.46-1.42.905-1.953.992-.91.148-1.09.358-3.058 3.597-3.604 5.927-7.732 14.87-8.978 19.447-.258.946-.65 2.255-.874 2.91-1.99 5.85-3.067 11.766-3.35 18.39-.243 5.737-.12 9.04.415 11.11.695 2.692 1.436 6.41 1.685 8.468.83 6.82 2.67 12.535 5.26 16.318.432.63 1.472 2.454 2.312 4.055.84 1.6 1.822 3.352 2.18 3.89.84 1.26 1.723 4.587 1.497 5.636-.095.436-.533 1.3-.975 1.916l-.804 1.124.977 3.242c1.236 4.1 1.768 5.158 4.565 9.064 6.105 8.523 14.476 16.832 22.988 22.816 13.95 9.81 29.187 15.28 47.625 17.105 2.713.27 16.303-.063 19.392-.473 21.66-2.876 40.72-12.224 55.882-27.406 10.307-10.323 18.067-22.7 22.833-36.415 1.183-3.407 3.3-11.325 3.41-12.75.03-.408-.433-1.73-1.056-3.02-1.15-2.37-1.303-2.968-.84-3.254.163-.1.005-.484-.397-.962-.367-.437-.668-1.014-.668-1.283 0-.787 1.282-2.116 2.043-2.116.627 0 .662-.065.514-.975-.087-.538-.524-1.7-.97-2.58-.46-.907-1.26-3.433-1.845-5.81-1.095-4.458-1.443-5.248-1.747-3.97-.1.422-.363.975-.584 1.23-.56.643-.996.21-1.49-1.478-.332-1.136-.642-1.555-1.837-2.485-1.646-1.28-1.624-1.29-2.646 1.15-.742 1.775-1.526 5.124-2.16 9.23-.225 1.454-.663 3.36-.974 4.232-.643 1.803-.683 2.546-.252 4.695.168.837.42 2.18.558 2.987.185 1.072.506 1.76 1.195 2.566 1.548 1.807 1.747 3.893.505 5.266-.954 1.053-1.56.596-2.15-1.624l-.246-.926-.488.99c-.503 1.02-1.08 1.384-1.775 1.117-.22-.083-1.16-1.347-2.088-2.807-.93-1.46-2.422-3.766-3.318-5.123-.896-1.358-1.713-2.746-1.816-3.085-.103-.34-.425-1.047-.716-1.574-.477-.865-.66-.972-1.888-1.103-1.492-.16-4.088-1.21-4.643-1.88-.195-.233-.514-.424-.71-.424-.195 0-.76-.357-1.26-.794-.496-.437-1.01-.795-1.14-.795-.333 0-3.83 1.85-4.362 2.305-.59.508-5.175 1.46-6.245 1.3-.925-.14-1.038.06-.555.977.423.805.737.966 1.892.97 1.115.006 2.19.473 2.908 1.267.42.466.442.72.19 2.342-.158 1-.52 2.143-.806 2.537-.286.394-.52 1.002-.52 1.352 0 .35-.298 1.074-.66 1.61-.365.536-.663 1.066-.663 1.178 0 .112-.358.545-.795.964-.436.418-.793.908-.793 1.088 0 .18-.678.783-1.507 1.34-.83.556-1.88 1.547-2.337 2.202-.845 1.214-4.854 4.495-7.004 5.733-.655.377-1.79 1.083-2.522 1.57-.73.485-1.764.976-2.294 1.09l-.963.206.363.86c.56 1.323 1.533 1.176 5.652-.856 1.913-.943 3.82-1.967 4.235-2.275.62-.458.86-.506 1.318-.26.31.165.56.53.56.808 0 .28.134.8.297 1.157.237.52.21.774-.132 1.262-.236.337-.43.794-.43 1.016-.005.728-2.896 7.173-3.904 8.702-.54.82-2.475 3.04-4.3 4.932-7.882 8.18-8.595 9.05-8.505 10.373.033.51-.06 1.07-.205 1.245-.178.215-.167.64.034 1.293.223.73.22 1.143-.01 1.65-.473 1.038-.37 1.723.353 2.395.62.575.662.776.662 3.262v2.65l-1.257 1.21c-.69.664-1.91 1.52-2.712 1.902-.8.382-2.374 1.287-3.498 2.013l-2.042 1.32.16 1.54c.213 2.034-.183 2.62-2.302 3.414-1.388.518-1.75.795-2.384 1.825-.745 1.212-2.058 2.134-5.412 3.803-2.49 1.24-4.01 1.53-9.59 1.833-6.055.33-7.344.165-7.632-.983-.18-.714-1.834-2.336-3.528-3.457-.71-.47-1.484-1.366-2.157-2.5-.576-.97-1.403-2.162-1.836-2.648-.434-.485-.788-1.03-.788-1.207 0-.18-.518-.962-1.15-1.74-1.397-1.715-2.025-2.886-2.025-3.773 0-.963 1.136-3.353 1.95-4.1.834-.77.86-1.188.173-2.705-.288-.634-.526-1.442-.53-1.795-.012-1.405-2.053-4.92-4.253-7.324-1.184-1.294-2.385-2.804-2.668-3.355-.51-.998-.51-1.006.026-1.69.297-.377.54-.863.54-1.078 0-.216.2-.953.443-1.638.532-1.496.354-2.294-.418-1.88-.82.438-1.422.06-1.253-.786l.143-.72-1.99-.128c-2.226-.143-2.463-.293-3.515-2.234-1.04-1.917-1.31-1.994-6.452-1.845-4.343.127-4.478.115-5.927-.55-.953-.435-2.485-.808-4.276-1.042-1.535-.2-3.054-.534-3.375-.745-.323-.21-1.22-1.123-2-2.03-.776-.904-2.275-2.568-3.33-3.696-1.055-1.13-1.93-2.208-1.945-2.4-.015-.19-.01-.704.012-1.14.023-.485-.25-1.22-.7-1.882-.408-.598-1.257-1.848-1.887-2.778l-1.147-1.69.177-2.515c.14-1.99.316-2.752.843-3.663.544-.942.633-1.356.493-2.292-.167-1.115.057-1.57.78-1.58.307-.006.314-.267.033-1.22-.232-.787.406-3.537 1.156-4.987.268-.518 1.102-1.537 1.853-2.265.75-.727 1.587-1.753 1.86-2.278.28-.543.873-1.136 1.37-1.372.483-.23 1.165-.722 1.516-1.095.35-.373.813-.68 1.027-.68.63 0 3.58-1.11 4.082-1.54.255-.215.463-.557.463-.76 0-1.425 2.476-4.082 4.318-4.634 1.266-.38 2.46-1.526 2.692-2.584.224-1.022.038-1.284-1.345-1.896-1.43-.632-1.547-.825-1.072-1.743.21-.405.382-1.197.382-1.76 0-.6.214-1.31.52-1.725.886-1.197 1.577-2.75 1.78-3.995.374-2.317 1.788-2.89 4.253-1.723 2.008.95 3.487 1.458 4.242 1.458.852 0 1.43-1.203 1.43-2.983 0-1.2-.145-1.625-.927-2.725-.51-.716-.926-1.502-.926-1.747 0-.707.757-1.277 1.698-1.277.476 0 1.22-.175 1.652-.39.628-.314.948-.332 1.59-.09.767.29 1.932.122 1.582-.228-.092-.092-1.626-.298-3.408-.457-2.62-.234-3.257-.37-3.323-.715-.052-.274.23-.55.792-.772 1.294-.514 1.454-.7 1.33-1.553l-.115-.776-1.904.143c-1.57.12-1.984.065-2.355-.306-.64-.64-.562-1.093.344-2.04.437-.458.797-1.023.802-1.256.02-.995 1.68-1.99 3.893-2.332.832-.128.86-.174.86-1.4 0-1.114.11-1.363.918-2.072.75-.658 1.08-.78 1.8-.663.525.085 1.296-.03 1.91-.287.918-.383 1.072-.387 1.43-.03.356.357.333.49-.21 1.224-.444.6-.53.903-.317 1.115.427.428.347 1.025-.238 1.773-.682.872-.66 1.587.132 4.234.364 1.215.662 2.725.662 3.354 0 .63.116 1.144.26 1.144.143 0 .86-.596 1.59-1.323 1.194-1.187 1.45-1.323 2.5-1.323 1.472 0 1.88-.408 2.105-2.11.1-.743.31-1.638.47-1.99.313-.687 1.672-1.456 2.572-1.456.307 0 .556-.17.556-.38 0-.585-.398-.703-.954-.282-.69.523-2.465.5-3.06-.04-.89-.805-.527-5.075.533-6.275.47-.53 2.862-2.155 4.105-2.787 1.145-.58 3.33-3.325 3.162-3.968-.093-.357.108-.76.617-1.24 1.076-1.012 4.25-3.02 4.776-3.02.243 0 .942-.24 1.554-.537.61-.296 1.69-.605 2.398-.687 1.096-.125 1.438-.045 2.295.542 1.29.882 2.975 1.742 3.414 1.743.57 0 3.664 1.553 4.51 2.264.976.82 1.178.68.62-.437-.232-.468-.423-1.088-.423-1.377 0-.48.13-.512 1.456-.375 1.314.136 1.415.11 1.045-.26-.56-.56-.373-1.252.367-1.358.44-.062.653.068.756.463.172.658.426.695.893.132.19-.23.938-.716 1.66-1.083 1.565-.792 1.316-1.134-.83-1.14-1.435-.005-2.596-.433-3.223-1.19-.395-.475-1.03-3.673-1.05-5.3-.012-.888.175-1.27 1.153-2.366 1.012-1.134 1.223-1.26 1.59-.956.354.294.412.89.355 3.647-.065 3.144-.04 3.317.53 3.78.958.776 4.91 1.415 5.444.88.097-.098.012-.366-.19-.596-.573-.653-2.058-4.235-1.964-4.733.047-.245.36-.486.693-.533.338-.048.708-.354.837-.692.126-.332.43-.68.674-.775.296-.114.384-.325.262-.632-.1-.253-.357-1.294-.572-2.313-.263-1.247-.61-2.08-1.06-2.553-.563-.59-.62-.79-.37-1.26.373-.695-.187-1.01-1.012-.57-.296.158-1.235.36-2.088.45-1.782.186-3.237-.356-3.237-1.207 0-.397.253-.524 1.257-.634.69-.074 1.852-.277 2.58-.45s1.853-.305 2.502-.294c.737.013 1.356-.14 1.65-.406.46-.418 1.593-.396 3.667.07.542.12.736.02.98-.518.263-.577.236-.69-.2-.828-1.2-.38-.803-2.155.544-2.424 1.454-.29.856-1.215-1.067-1.647-.89-.2-1.377-.172-2.072.118-1.102.462-2.417.48-2.98.042-.75-.583-1.72-3.1-1.194-3.1.06 0 .284-.067.495-.148.22-.085.803.25 1.38.794 1.052.992 1.726 1.172 2.21.59.426-.514-.062-1.956-.88-2.6-.375-.294-.854-.87-1.065-1.278-.305-.59-.86-.914-2.707-1.58-2.463-.888-9.236-3.872-9.803-4.32-.185-.145-.266-.485-.18-.756.12-.384.02-.49-.458-.483zm6.063.75c-.276-.01-.46.006-.46.057 0 .112.21.26.464.326.62.162 2.832.214 2.68.063-.173-.174-1.854-.42-2.684-.447zm-32.547 4.27c-.232 0-.752.125-1.157.28-.59.223-.658.328-.348.524.586.37.92.307 1.446-.276.416-.46.424-.53.06-.53zm-.014 2.774c-.17.006-.57.062-1.03.146-.692.127-1.32.453-1.653.86-.296.36-.805.737-1.132.837-.503.152-.55.264-.31.715.44.822 1.497.415 2.955-1.14.69-.735 1.257-1.37 1.257-1.407 0-.01-.032-.013-.088-.01zm57.836 1.267c-.148 0-.25.022-.3.07-.09.095.31.585.89 1.09 1.18 1.024 9.714 6.74 9.854 6.6.05-.05-.055-.407-.23-.793-.447-.98-.066-1.276 1.192-.93.555.154 1.062.227 1.127.162.138-.14-2.76-1.956-6.22-3.895-2.053-1.15-5.28-2.297-6.314-2.304zm-66.26.996c-.863-.012-1.544.23-1.544.548 0 .353.838.268 1.588-.16l.66-.38zm-.485 2.406c-.12 0-.24.018-.33.055-.182.073-.033.134.33.134.365 0 .513-.06.33-.133-.09-.037-.21-.055-.33-.055zm8.783 3.938c-.386.003-.393.04-.05.26.517.336.867.336.66 0-.09-.145-.364-.262-.61-.26zm-34.28 5.417c.097.013.183.06.237.147.086.14.083.372-.007.518-.244.395-.926.32-.926-.104 0-.337.402-.6.695-.56zm60.658 1.562c.16-.006.356.002.6.02.623.047 1.17.2 1.216.337.18.54-.463 1.655-.955 1.655-.277 0-.845.178-1.262.395-.945.493-1.444.5-2.087.03-.427-.312-.45-.43-.15-.793.195-.234.618-.426.94-.426.365 0 .698-.243.88-.64.19-.417.343-.563.82-.58zm12.07 2.012c.217 0 .396.18.396.397 0 .412-.313.524-.617.22-.306-.305-.194-.618.22-.618zm-21.054.864c.443-.01.805.004.978.047.802.2.823 1.012.04 1.532-.5.332-.547.487-.305 1.025.155.348.23.782.17.964-.14.402-1.182.437-1.567.053-.194-.195-.41-.076-.72.396-.68 1.036-1.164.827-1.888-.81-.572-1.294-.614-1.58-.324-2.184.294-.613.553-.723 2.15-.916.5-.06 1.023-.097 1.466-.108zm69.41 2.418c-.18.18.44.998 2.433 3.217.97 1.083 1.895 1.97 2.053 1.97.17 0 .13-.19-.097-.464-1.63-1.963-4.29-4.823-4.39-4.722zm-132.102 5.74c-.216-.028-.243.273.043.732.242.388.397.452.538.224.11-.176.027-.492-.183-.7-.164-.165-.3-.245-.398-.257zm34.797 3.267c.452.015.883.217.993.635.084.323.59.575 1.617.804 1.65.368 2.143.91 1.86 2.035-.28 1.12-1.536 1.697-3.692 1.7-1.736 0-1.923-.057-2.637-.803-.66-.69-.723-.876-.446-1.32.178-.283.323-.743.323-1.02 0-.278.178-.573.396-.657.22-.084.397-.33.397-.548 0-.55.612-.844 1.192-.826zm103.82 1.066c-.125-.015-.184.096-.273.322-.335.85-.238 1.637.237 1.906.354.2.486.16.56-.18.053-.24.276-.57.496-.73.34-.25.29-.38-.352-.885-.353-.28-.544-.42-.67-.434zm1.99 1.828c-.016-.004-.028-.004-.035.003-.053.053.336.886.866 1.85.64 1.162 1.168 1.804 1.57 1.905.33.083.998.56 1.48 1.057.933.96 1.04 1.03 1.04.687 0-.573-2.474-4.016-2.886-4.016-.25 0-.797-.355-1.213-.79-.364-.38-.704-.667-.82-.696zm-67.764 4.534c-.5.02-1.007.14-1.075.343-.085.26.178.327 1.037.265.634-.045 1.123-.2 1.086-.347-.05-.2-.546-.28-1.047-.26zm-9.647 1.45c-.448 0-1.28.812-1.28 1.248 0 .395.337.274 1.125-.402.533-.458.604-.845.154-.845zm-22.99.588c.11 0 .226.047.334.156.25.25.223.416-.122.76-.413.414-.454.413-.62-.018-.18-.47.083-.897.41-.898zm20.147 2.588c-.333 0-1.537 1.466-1.747 2.128-.32 1.01.918 1.747 1.67.994.37-.368.436-3.122.077-3.122zm-17.193 1.058c.4 0 .512.12.397.42-.088.23-.16.467-.16.528 0 .06-.18.11-.397.11-.22 0-.397-.235-.397-.53 0-.36.177-.528.558-.528zm26.68 1.852c-.155 0-.208.12-.118.265.09.144.216.263.28.263.064 0 .117-.12.117-.264 0-.147-.126-.266-.28-.266zm-8.67 2.473c-.546-.04-1.326.323-2.42 1.12-1.123.815-1.36 1.17-1.18 1.752.222.71-.636 2.07-1.55 2.454-.597.25-.84.53-.843.972-.004.516-.132.612-.755.568-.626-.044-.697.01-.43.33.392.474.724.48 1.583.032 1.093-.57 1.86-.688 2.522-.386 1.14.52 1.802-.228 2.316-2.62.248-1.15.673-2.53.945-3.063.468-.917.47-.98.034-1.118-.07-.023-.142-.037-.22-.043zm-2.287 2.025c.56 0 .477.897-.136 1.45-.46.42-.54.426-.68.062-.206-.537.32-1.512.817-1.512zm4.254.366c-.094.004-.16.11-.16.28 0 .227.118.412.264.412.145 0 .264-.11.264-.248 0-.137-.12-.323-.264-.413-.037-.023-.072-.033-.103-.032zm-27.397 2.545c-.155 0-.28.12-.28.264 0 .146.052.265.116.265.063 0 .19-.12.28-.265.09-.145.037-.264-.117-.264zm117.568 2.183c-.06.062.013.756.163 1.544s.39 2.23.528 3.203c.14.975.553 2.662.92 3.75.364 1.09.663 2.525.663 3.19 0 1.035-.077 1.21-.53 1.21-.29 0-.528.126-.528.28 0 .537.76 1.715 1.668 2.588.505.487 1.13 1.35 1.387 1.922.257.57.506 1 .554.952.047-.047-.098-1.15-.323-2.45-.655-3.797-1.85-8.534-3.164-12.556-.672-2.06-1.274-3.693-1.335-3.632zm-149.936 10.136c.315.014.66.34.49.616-.232.374-.598.377-.827.007-.098-.16-.074-.392.053-.52.078-.077.18-.107.284-.103zm88.768 2.052c-.134-.014-.153.12-.227.31-.096.252.026 1.094.27 1.872.476 1.505 1.616 2.71 3.777 3.985 1.254.742 1.55 1.245 1 1.7-.245.205-.38.825-.38 1.75 0 1.433 0 1.435 1.124 1.934 1.376.61 2.057.652 2.727.162.502-.368.497-.41-.27-1.92-.704-1.39-1.13-2.338-2.437-5.415-.224-.528-.697-1.093-1.05-1.254-.354-.16-1.308-.8-2.122-1.418-1.644-1.252-2.188-1.682-2.412-1.704zm-13.24 1c-.054-.004-.118 0-.194.015-.26.05-.525.25-.59.447-.076.227.052.323.353.264.26-.05.526-.25.59-.446.058-.17 0-.267-.16-.28zm-6.42 1.132c-.24-.012-.48.034-.626.154-.197.164-.438.62-.537 1.014-.1.395-.34.896-.534 1.114-.472.53-1.456 3.158-1.456 3.89 0 .32.207.703.462.85.765.447 2.533.322 3.648-.256.577-.298 1.656-.704 2.4-.9 1.213-.323 1.533-.307 3.174.16 2.372.675 4.643.567 5.47-.26.833-.833.47-1.232-2.608-2.87-2.854-1.52-3.536-1.654-4.742-.927-1.505.91-1.666.896-2.783-.222-.578-.58-1.052-1.163-1.052-1.3 0-.25-.412-.428-.815-.447zm-21.99 1.262c-.042 0-.08.015-.11.045-.124.118 0 .595.274 1.058.275.465.774 1.4 1.11 2.08.336.68.84 1.31 1.122 1.398.28.09 1.264.873 2.185 1.74.92.87 1.767 1.58 1.88 1.58.113 0 .205-.332.205-.736 0-1.036-.633-1.82-2.068-2.558-1.097-.565-3.304-2.822-4.185-4.28-.123-.205-.287-.327-.413-.326zm-5.238 1.3c-.415.016-.947.186-1.59.514-1.24.632-1.996.663-3.266.132-.522-.218-1.012-.397-1.088-.397-.077 0-.35.447-.604.992-.367.783-.828 1.172-2.185 1.848-1.78.887-3.174 2.15-3.174 2.877 0 .838-1.143 2-2.604 2.645-1.346.595-1.603.63-2.75.353-.697-.167-1.444-.235-1.66-.152-.597.23-.472.906.2 1.086.328.088 1.043.293 1.59.457.804.242 1.394.208 3.09-.18 1.65-.377 2.678-.443 4.827-.31 1.5.09 4.04.236 5.64.32 4.088.217 5.684 1 4.797 2.352-.32.49-.322.697-.006 1.45.565 1.34.468 1.83-.437 2.203l-.808.33 1.146.958c.67.56 1.79 1.143 2.7 1.407 1.408.41 2.794 1.385 3.085 2.17.14.376 3.658 2.183 4.284 2.2.258.007.513-.136.564-.318.052-.182.224-.81.38-1.393.503-1.86 2.958-2.76 4.71-1.727 1.387.82 4.627 1.806 7.132 2.173 1.963.288 2.234.272 3.175-.195.816-.405 1.508-.5 3.32-.454l2.29.056.417-1.042c.728-1.817 1.32-5.39 1.035-6.246-.298-.894-.985-1.115-1.637-.526-.81.733-1.962.793-3.193.165l-1.126-.575-.584.55c-.63.59-1.488.702-2.254.292-.36-.193-.594-.128-.95.265-.686.758-.965.654-1.802-.672-.798-1.264-1.233-1.507-1.233-.693 0 .273-.178.645-.396.826-.5.416-1.87-.085-2.268-.83-.415-.772-1.04-.61-1.04.27 0 1.19-.562 1.474-1.647.834-1.112-.657-2.587-2.44-2.587-3.128 0-.417-1.11-2.827-1.48-3.207-.057-.06-.346.11-.64.377-.413.372-.61.413-.85.175-.502-.503-.734-.363-.734.442 0 .744-1.55 2.686-2.143 2.686-.147 0-.44.416-.653.926-.46 1.1-.84 1.143-2.334.268-2.91-1.705-2.963-2.906-.13-2.927 2.314-.017 2.534-.06 2.715-.533.275-.716-.538-1.832-2.47-3.394-1.03-.83-2.065-1.808-2.303-2.17-.456-.696-1.365-1.304-1.6-1.07-.076.077-.225 1.295-.332 2.708-.207 2.734-.56 3.393-1.73 3.225-.452-.064-.542-.308-.61-1.645-.066-1.253.028-1.717.462-2.304.3-.405.543-1.074.543-1.487 0-.91.428-1.387 1.244-1.387.35 0 .61-.16.61-.375 0-.822-.366-1.224-1.058-1.197zm-8.29 5.012c.525 0 .636.116.568.595-.095.664-1.142.985-1.342.412-.21-.603.102-1.007.775-1.007zm1.557 0c.065 0 .117.12.117.264 0 .146-.126.265-.28.265-.154 0-.206-.12-.116-.266.09-.145.216-.264.28-.264zm25.93 2.834c-.165-.01-.376.043-.687.16-.99.375-.985.595.032 1.214.45.272 1.107.926 1.465 1.45.674.993 1.16 1.233 1.16.575 0-.21-.12-.455-.266-.545-.145-.09-.265-.632-.265-1.206 0-.71-.117-1.043-.365-1.043-.2 0-.503-.167-.672-.37-.122-.148-.24-.225-.403-.236zm-54.388.605c.146 0 .265.118.265.264 0 .145-.12.264-.265.264-.145 0-.264-.12-.264-.264 0-.146.12-.265.264-.265zm148.924 2.758c-.07.006-.132.177-.203.527-.208 1.025-.577 1.1-1.447.293-1.004-.93-1.224-.843-1.224.49 0 1.675 1.184 5.06 2.188 6.258l.855 1.02.074-4.01c.04-2.203-.01-4.19-.11-4.415-.048-.11-.092-.165-.134-.162zm-81.258 3.097c.33.023.373.295.228.874-.23.92-1.614 1.644-2.475 1.296-.18-.073-.33-.347-.33-.608 0-.59.383-.903 1.647-1.35.43-.152.732-.228.93-.213zm-9.854.76c.145 0 .304.118.353.263.048.146-.11.265-.353.265s-.4-.12-.353-.265c.05-.145.208-.264.354-.264zm-3.54.05c1.046.026 2.35.385 2.35.86 0 .645-.69.764-2.45.423-1.18-.23-1.372-.382-1.163-.926.104-.27.638-.374 1.265-.358zm-56.388.61c.194 0 .402.15.463.33.064.198-.123.332-.464.332-.34 0-.53-.134-.463-.33.06-.183.27-.332.463-.332zm3.613.397c.51 0 .438.637-.13 1.15-.565.512-.744.54-.98.156-.21-.34.61-1.306 1.11-1.306zm-2.688.53c.218 0 .397.178.397.396 0 .218-.18.397-.398.397-.218 0-.397-.18-.397-.397 0-.218.18-.397.397-.397zm142.844 1.07c.197-.014.42.12.533.41.256.67-.26 1.188-.723.724-.097-.097-.177-.394-.177-.66 0-.3.17-.46.366-.474zm-51.56 3.274c-.048 0-.092.007-.135.02-.797.254-.79.81.023 1.617.424.42 1.203 1.208 1.732 1.748.786.804 1.052.935 1.457.718.75-.4 1.816.768 1.816 1.992 0 1.107.326 1.184 1.167.277.337-.364.797-.662 1.02-.662.33 0 1.782-2.008 1.782-2.465 0-.067-.685-.107-1.522-.09-2.468.052-4.5-.67-5.844-2.08-.71-.745-1.165-1.075-1.495-1.074zM410.1-126.73c.22 0 1.05 1.35 1.05 1.706 0 .412-.79.06-1.17-.523-.427-.65-.372-1.184.12-1.184zm86.337.71c-.075 0-.136.02-.18.065-.342.342.242 1.644 1.7 3.786.57.836 1.034 1.75 1.034 2.033 0 .283.36.77.8 1.084.932.664 1.693 2.042 2.132 3.863.216.895.656 1.658 1.433 2.482.615.655 1.452 1.796 1.858 2.535.61 1.11.844 1.325 1.338 1.23.454-.087.74.1 1.183.775.462.707 2.987 2.868 3.35 2.868.045 0-.114-.446-.353-.992-.24-.545-.56-1.51-.715-2.142-.198-.81-.462-1.22-.892-1.383-.378-.143-.61-.45-.61-.804 0-.316-.478-1.09-1.06-1.722-.582-.63-1.058-1.264-1.058-1.406 0-.14-.522-.617-1.16-1.056-1-.687-1.265-1.08-1.902-2.828-.586-1.607-.94-2.17-1.694-2.71-.97-.69-2.153-2.14-2.973-3.642-.554-1.016-1.715-2.034-2.234-2.035zm-84.23 2.464c.146 0 .265.12.265.265 0 .144-.12.263-.265.263-.145 0-.264-.12-.264-.264 0-.147.12-.266.264-.266zm-1.058.794c.353 0 .53.176.53.53 0 .51-.518.716-.882.352-.365-.364-.158-.882.352-.882zm116.75 14.07c.116-.006.24.015.37.065.335.128.352.234.088.552-.417.503-1.056.51-1.056.013 0-.375.254-.618.6-.63zm-76.27 23.236c.147 0 .266.12.266.265 0 .144-.12.263-.265.263-.145 0-.264-.12-.264-.264 0-.147.118-.266.263-.266zm44.74 2.728c-.643.037-1.876 1.054-1.876 1.66 0 .792.034.79 1.328-.025 1.028-.65 1.326-1.252.784-1.587-.063-.04-.143-.054-.235-.048zm24.878 10.5c1.02 0 1.77 3.245.912 3.956-.208.173-.617.772-.908 1.33-.86 1.65-3.36 5.615-4.62 7.324-.824 1.12-1.533 1.76-2.404 2.17-1.58.743-3.35.993-3.793.537-.182-.188-.33-.896-.33-1.575 0-.972.167-1.445.793-2.232.61-.768.794-1.268.794-2.162 0-2.147.48-2.8 2.948-3.997 1.866-.905 2.514-1.406 4.147-3.21 1.18-1.306 2.14-2.14 2.46-2.14zm6.568 6.88c.154 0 .28.12.28.265 0 .146-.052.265-.116.265-.065 0-.19-.12-.28-.265-.09-.145-.038-.264.116-.264z" fill="#05153a"/></g></svg>
